<svg id="Capa_1" stroke="#111111" fill="#111111" enable-background="new 0 0 64 64" height="18" viewBox="0 0 64 64" width="18" xmlns="http://www.w3.org/2000/svg"><path d="m62.933 53.333h-44.8c-.315 0-.613-.139-.816-.38l-17.066-20.266c-.334-.397-.334-.977 0-1.374l17.067-20.267c.203-.241.501-.38.816-.38h44.8c.589 0 1.067.478 1.067 1.067v40.533c-.001.589-.479 1.067-1.068 1.067zm-44.304-2.133h43.237v-38.4h-43.237l-16.168 19.2z"/><path d="m46.933 41.6c-.273 0-.546-.105-.754-.313l-17.066-17.066c-.417-.417-.417-1.091 0-1.508.416-.417 1.092-.417 1.508 0l17.067 17.067c.417.417.417 1.091 0 1.508-.209.207-.482.312-.755.312z"/><path d="m29.867 41.6c-.273 0-.546-.105-.754-.313-.417-.417-.417-1.091 0-1.508l17.067-17.067c.416-.417 1.092-.417 1.508 0 .417.417.417 1.091 0 1.508l-17.067 17.067c-.208.208-.481.313-.754.313z"/></svg>